<?xml version="1.0" encoding="UTF-8" standalone="no"?>
<!-- Created with Inkscape (http://www.inkscape.org/) -->

<svg
   width="1920.0001"
   height="571.00006"
   viewBox="0 0 508 151.07709"
   version="1.1"
   id="svg1"
   xml:space="preserve"
   xmlns="http://www.w3.org/2000/svg"
   xmlns:svg="http://www.w3.org/2000/svg"><defs
     id="defs1" /><g
     id="layer6"
     transform="translate(-1859.75)"><g
       id="g201"
       transform="matrix(2.6629732,0,0,2.6629732,-3295.8269,-263.90649)"><g
         id="g200"
         transform="matrix(0.2882952,0,0,0.2882952,1840.2342,89.332286)"><path
           id="path165"
           style="fill:#ed6825;fill-opacity:1;stroke:none;stroke-width:0.595451"
           d="M 377.27289,72.535416 A 45.013601,43.178805 0 0 0 332.25931,115.7138 h 30.8309 a 14.434206,13.845855 0 0 1 14.42691,-13.79424 14.434206,13.845855 0 0 1 14.42808,13.79424 h 30.34128 A 45.013601,43.178805 0 0 0 377.27289,72.535416 Z" /><path
           id="path166"
           style="fill:#ed6825;fill-opacity:1;stroke:none;stroke-width:0.592215"
           d="m 436.71924,72.534252 a 44.768961,42.944141 0.01259236 0 0 -44.76823,42.943468 44.768961,42.944141 0.01259236 0 0 0.0181,0.23608 h 30.31919 a 14.927211,14.310631 4.8069939 0 1 -10e-4,-0.009 14.927211,14.310631 4.8069939 0 1 14.9223,-14.21292 14.927211,14.310631 4.8069939 0 1 14.90029,14.22222 h 29.37367 a 44.768961,42.944141 0.01259236 0 0 0.008,-0.23376 44.768961,42.944141 0.01259236 0 0 -44.76936,-42.945788 z" /><path
           id="path167"
           style="fill:#ed6825;fill-opacity:1;stroke:none;stroke-width:0.598539"
           d="m 332.25931,114.65547 v 102.82474 l 30.82393,-11.33605 v -91.48869 z" /><path
           id="path168"
           style="fill:#ed6825;fill-opacity:1;stroke:none;stroke-width:0.600352"
           d="m 391.95101,114.39088 v 81.36349 l 30.33547,-11.22393 v -70.13956 z" /><path
           id="path169"
           style="fill:#ed6825;fill-opacity:1;stroke:none;stroke-width:0.600838"
           d="m 452.13235,114.65547 -0.24772,59.28467 29.60397,-10.97097 v -48.3137 z" /><circle
           style="fill:#ed6825;fill-opacity:1;stroke:none;stroke-width:0.604809"
           id="circle169"
           cx="377.517"
           cy="48.811558"
           r="14.433712" /><circle
           style="fill:#ed6825;fill-opacity:1;stroke:none;stroke-width:0.625311"
           id="circle170"
           cx="437.20895"
           cy="48.811558"
           r="14.922993" /><rect
           style="fill:#ed6825;fill-opacity:1;stroke:none;stroke-width:0.472262"
           id="rect170"
           width="4.6372218"
           height="104.60835"
           x="332.25876"
           y="115.71435" /><rect
           style="fill:#ed6825;fill-opacity:1;stroke:none;stroke-width:0.590319"
           id="rect171"
           width="3.7794919"
           height="68.229774"
           x="339.68085"
           y="150.088" /><rect
           style="fill:#ed6825;fill-opacity:1;stroke:none;stroke-width:0.590319"
           id="rect172"
           width="3.7794919"
           height="68.229774"
           x="346.01886"
           y="153.61827" /><rect
           style="fill:#ed6825;fill-opacity:1;stroke:none;stroke-width:0.642833"
           id="rect173"
           width="4.5751743"
           height="66.837326"
           x="352.27121"
           y="156.72394" /><rect
           style="fill:#ed6825;fill-opacity:1;stroke:none;stroke-width:0.642833"
           id="rect174"
           width="4.5751743"
           height="66.837326"
           x="358.50812"
           y="149.1194" /><rect
           style="fill:#ed6825;fill-opacity:1;stroke:none;stroke-width:1.12526"
           id="rect175"
           width="4.6372223"
           height="4.8829384"
           x="332.25876"
           y="222.57321" /><rect
           style="fill:#ed6825;fill-opacity:1;stroke:none;stroke-width:0.917129"
           id="rect176"
           width="3.7794907"
           height="3.9797575"
           x="339.68085"
           y="220.56827" /><rect
           style="fill:#ed6825;fill-opacity:1;stroke:none;stroke-width:0.917129"
           id="rect177"
           width="3.7794919"
           height="3.9797585"
           x="346.01886"
           y="224.09839" /><rect
           style="fill:#ed6825;fill-opacity:1;stroke:none;stroke-width:1.12526"
           id="rect178"
           width="4.6372299"
           height="4.8829474"
           x="352.2402"
           y="225.81181" /><rect
           style="fill:#ed6825;fill-opacity:1;stroke:none;stroke-width:1.11021"
           id="rect179"
           width="4.5751743"
           height="4.8176026"
           x="358.50812"
           y="218.20731" /><g
           id="g189"
           transform="matrix(4.1854625,0,0,4.1854625,61.640471,-366.36393)"
           style="display:inline"><rect
             style="fill:#ed6825;fill-opacity:1;stroke:none;stroke-width:0.114793"
             id="rect180"
             width="1.0903491"
             height="26.285955"
             x="78.918449"
             y="113.92584" /><rect
             style="fill:#ed6825;fill-opacity:1;stroke:none;stroke-width:0.138802"
             id="rect181"
             width="0.88867116"
             height="16.042854"
             x="80.663605"
             y="122.01743" /><rect
             style="fill:#ed6825;fill-opacity:1;stroke:none;stroke-width:0.138802"
             id="rect182"
             width="0.88867116"
             height="16.042854"
             x="82.153862"
             y="120.04733" /><rect
             style="fill:#ed6825;fill-opacity:1;stroke:none;stroke-width:0.151149"
             id="rect183"
             width="1.0757598"
             height="15.715449"
             x="83.623978"
             y="125.25784" /><rect
             style="fill:#ed6825;fill-opacity:1;stroke:none;stroke-width:0.151149"
             id="rect184"
             width="1.0757598"
             height="15.715449"
             x="85.090454"
             y="123.46979" /><rect
             style="fill:#ed6825;fill-opacity:1;stroke:none;stroke-width:0.264583"
             id="rect185"
             width="1.0903492"
             height="1.1481245"
             x="78.918449"
             y="140.74097" /><rect
             style="fill:#ed6825;fill-opacity:1;stroke:none;stroke-width:0.215644"
             id="rect186"
             width="0.88867092"
             height="0.93575966"
             x="80.663605"
             y="138.58946" /><rect
             style="fill:#ed6825;fill-opacity:1;stroke:none;stroke-width:0.215644"
             id="rect187"
             width="0.88867116"
             height="0.93575996"
             x="82.153862"
             y="136.61935" /><rect
             style="fill:#ed6825;fill-opacity:1;stroke:none;stroke-width:0.264583"
             id="rect188"
             width="1.0903511"
             height="1.1481265"
             x="83.616684"
             y="141.50246" /><rect
             style="fill:#ed6825;fill-opacity:1;stroke:none;stroke-width:0.261043"
             id="rect189"
             width="1.0757598"
             height="1.132762"
             x="85.090454"
             y="139.71442" /></g><g
           id="g199"
           transform="matrix(4.0504485,0,0,4.0504485,132.47681,-347.10406)"
           style="display:inline"><rect
             style="fill:#ed6825;fill-opacity:1;stroke:none;stroke-width:0.0790797"
             id="rect190"
             width="1.0903491"
             height="12.474491"
             x="78.161575"
             y="127.74514"
             transform="matrix(1,0,0.00544694,0.99998517,0,0)" /><rect
             style="fill:#ed6825;fill-opacity:1;stroke:none;stroke-width:0.138802"
             id="rect191"
             width="0.88867116"
             height="16.042854"
             x="80.663605"
             y="122.01743" /><rect
             style="fill:#ed6825;fill-opacity:1;stroke:none;stroke-width:0.138802"
             id="rect192"
             width="0.88867116"
             height="16.042854"
             x="82.153862"
             y="120.04733" /><rect
             style="fill:#ed6825;fill-opacity:1;stroke:none;stroke-width:0.151149"
             id="rect193"
             width="1.0757598"
             height="15.715449"
             x="83.623978"
             y="125.25784" /><rect
             style="fill:#ed6825;fill-opacity:1;stroke:none;stroke-width:0.151149"
             id="rect194"
             width="1.0757598"
             height="15.715449"
             x="85.090454"
             y="123.46979" /><rect
             style="fill:#ed6825;fill-opacity:1;stroke:none;stroke-width:0.264583"
             id="rect195"
             width="1.0903492"
             height="1.1481245"
             x="78.918449"
             y="140.74097" /><rect
             style="fill:#ed6825;fill-opacity:1;stroke:none;stroke-width:0.215644"
             id="rect196"
             width="0.88867092"
             height="0.93575966"
             x="80.663605"
             y="138.58946" /><rect
             style="fill:#ed6825;fill-opacity:1;stroke:none;stroke-width:0.215644"
             id="rect197"
             width="0.88867116"
             height="0.93575996"
             x="82.153862"
             y="136.61935" /><rect
             style="fill:#ed6825;fill-opacity:1;stroke:none;stroke-width:0.264583"
             id="rect198"
             width="1.0903511"
             height="1.1481265"
             x="83.616684"
             y="141.50246" /><rect
             style="fill:#ed6825;fill-opacity:1;stroke:none;stroke-width:0.261043"
             id="rect199"
             width="1.0757598"
             height="1.132762"
             x="85.090454"
             y="139.71442" /></g></g><path
         style="font-weight:bold;font-size:28.7782px;line-height:0;font-family:'Inter Tight';-inkscape-font-specification:'Inter Tight Bold';letter-spacing:2.11386px;fill:#08213d;stroke-width:0.630359"
         d="m 1914.7873,118.97938 h 5.4662 l 5.7613,14.0659 h 0.2388 l 5.7754,-14.0659 h 5.4802 v 20.93726 h -4.328 v -13.6303 h -0.1686 l -5.4381,13.53194 h -2.9228 l -5.3959,-13.56004 h -0.1686 v 13.6584 h -4.2999 z m 31.131,20.93726 h -4.7355 l 7.2227,-20.93726 h 5.705 l 7.2086,20.93726 h -4.7214 l -5.2554,-16.15963 h -0.1686 z m -0.2811,-8.23439 h 11.1994 v 3.45676 h -11.1994 z m 26.7749,8.23439 h -5.4521 v -3.794 h 5.2554 q 1.9813,0 3.3162,-0.68854 1.349,-0.70259 2.0235,-2.17804 0.6885,-1.48949 0.6885,-3.8221 0,-2.31856 -0.6885,-3.794 -0.6745,-1.47545 -2.0235,-2.16399 -1.3349,-0.70259 -3.3022,-0.70259 h -5.3537 v -3.794 h 5.6067 q 3.1616,0 5.438,1.26466 2.2764,1.25062 3.4989,3.59728 1.2226,2.33261 1.2226,5.59264 0,3.27408 -1.2366,5.62074 -1.2225,2.34666 -3.513,3.61133 -2.2904,1.25061 -5.4802,1.25061 z m -3.0071,-20.93726 v 20.93726 h -4.4123 v -20.93726 z m 22.0956,0 v 20.93726 h -4.4123 v -20.93726 z m 8.4091,20.93726 h -4.7355 l 7.2227,-20.93726 h 5.705 l 7.2086,20.93726 h -4.7214 l -5.2554,-16.15963 h -0.1686 z m -0.281,-8.23439 h 11.1993 v 3.45676 h -11.1993 z"
         id="text200"
         transform="scale(1.039915,0.96161706)"
         aria-label="MADIA" /><path
         d="m 1991.216,140.38855 h 1.5953 l 2.1304,5.20055 h 0.082 l 2.1352,-5.20055 h 1.6146 v 7.18149 h -1.2772 v -4.93547 h -0.058 l -1.9954,4.91137 h -0.935 l -1.9713,-4.92101 h -0.067 v 4.94511 h -1.2531 z m 10.0974,7.29234 q -0.5157,0 -0.9254,-0.18315 -0.4097,-0.18797 -0.6458,-0.54946 -0.2362,-0.36148 -0.2362,-0.89166 0,-0.45306 0.1687,-0.75188 0.1687,-0.29883 0.4579,-0.47716 0.294,-0.17833 0.6603,-0.26991 0.3663,-0.0964 0.7567,-0.13495 0.4772,-0.053 0.7712,-0.0916 0.294,-0.0386 0.4241,-0.12532 0.135,-0.0867 0.135,-0.2699 v -0.0241 q 0,-0.39041 -0.2314,-0.6073 -0.2313,-0.21689 -0.6748,-0.21689 -0.4675,0 -0.7422,0.20243 -0.2699,0.20244 -0.3663,0.47716 l -1.1809,-0.16869 q 0.1398,-0.49162 0.4627,-0.81936 0.323,-0.33257 0.7857,-0.49644 0.4675,-0.16869 1.0314,-0.16869 0.3856,0 0.7712,0.0916 0.3856,0.0868 0.7085,0.29883 0.3229,0.21207 0.5157,0.56873 0.1928,0.35667 0.1928,0.89166 v 3.60521 h -1.2194 v -0.74225 h -0.039 q -0.1157,0.22171 -0.3277,0.41932 -0.2073,0.19279 -0.5206,0.31329 -0.3084,0.12049 -0.7326,0.12049 z m 0.323,-0.93504 q 0.3855,0 0.6651,-0.14941 0.2795,-0.15423 0.4338,-0.40486 0.1542,-0.25545 0.1542,-0.55428 v -0.63139 q -0.063,0.0482 -0.2024,0.0916 -0.1398,0.0386 -0.3181,0.0723 -0.1784,0.0337 -0.3519,0.0578 -0.1687,0.0241 -0.294,0.0386 -0.2844,0.0386 -0.5109,0.13013 -0.2217,0.0868 -0.3518,0.24099 -0.1302,0.15424 -0.1302,0.40004 0,0.35185 0.2555,0.53018 0.2554,0.17833 0.6507,0.17833 z m 4.7234,-6.3573 v 7.18149 h -1.2677 v -7.18149 z m 2.487,7.29234 q -0.5158,0 -0.9254,-0.18315 -0.4097,-0.18797 -0.6459,-0.54946 -0.2362,-0.36148 -0.2362,-0.89166 0,-0.45306 0.1687,-0.75188 0.1687,-0.29883 0.4579,-0.47716 0.294,-0.17833 0.6603,-0.26991 0.3663,-0.0964 0.7567,-0.13495 0.4772,-0.053 0.7712,-0.0916 0.294,-0.0386 0.4241,-0.12532 0.135,-0.0867 0.135,-0.2699 v -0.0241 q 0,-0.39041 -0.2314,-0.6073 -0.2313,-0.21689 -0.6747,-0.21689 -0.4675,0 -0.7423,0.20243 -0.2699,0.20244 -0.3663,0.47716 l -1.1808,-0.16869 q 0.1397,-0.49162 0.4627,-0.81936 0.3229,-0.33257 0.7856,-0.49644 0.4675,-0.16869 1.0314,-0.16869 0.3856,0 0.7712,0.0916 0.3856,0.0868 0.7085,0.29883 0.3229,0.21207 0.5157,0.56873 0.1928,0.35667 0.1928,0.89166 v 3.60521 h -1.2194 v -0.74225 h -0.039 q -0.1157,0.22171 -0.3278,0.41932 -0.2072,0.19279 -0.5205,0.31329 -0.3085,0.12049 -0.7326,0.12049 z m 0.3229,-0.93504 q 0.3856,0 0.6651,-0.14941 0.2796,-0.15423 0.4338,-0.40486 0.1542,-0.25545 0.1542,-0.55428 v -0.63139 q -0.063,0.0482 -0.2024,0.0916 -0.1398,0.0386 -0.3181,0.0723 -0.1783,0.0337 -0.3518,0.0578 -0.1687,0.0241 -0.2941,0.0386 -0.2843,0.0386 -0.5109,0.13013 -0.2217,0.0868 -0.3518,0.24099 -0.1301,0.15424 -0.1301,0.40004 0,0.35185 0.2554,0.53018 0.2555,0.17833 0.6507,0.17833 z m 4.7234,-2.32795 v 3.15214 h -1.2676 v -5.38853 h 1.2435 v 0.92058 h 0.063 q 0.1832,-0.45306 0.5736,-0.71815 0.3952,-0.2699 1.0025,-0.2699 0.5591,0 0.9736,0.23617 0.4145,0.23617 0.641,0.69405 0.2314,0.45306 0.2314,1.09891 v 3.42687 h -1.2676 v -3.22926 q 0,-0.53982 -0.2796,-0.84346 -0.2795,-0.30847 -0.7711,-0.30847 -0.3326,0 -0.5929,0.14459 -0.2554,0.1446 -0.4048,0.41932 -0.1446,0.26991 -0.1446,0.66514 z m 6.7284,5.28248 q -1.0266,0 -1.6146,-0.40004 -0.588,-0.39522 -0.7567,-0.95914 l 1.1374,-0.27954 q 0.077,0.15905 0.2266,0.31328 0.1494,0.15906 0.4,0.26027 0.2506,0.10604 0.6314,0.10604 0.5398,0 0.8917,-0.26509 0.3566,-0.26027 0.3566,-0.8531 v -1.01698 h -0.072 q -0.091,0.19279 -0.2795,0.40004 -0.188,0.20243 -0.4964,0.34703 -0.3037,0.13977 -0.7712,0.13977 -0.6169,0 -1.123,-0.29401 -0.5013,-0.294 -0.8001,-0.8772 -0.294,-0.58319 -0.294,-1.46039 0,-0.88685 0.294,-1.49896 0.2988,-0.61211 0.8049,-0.93022 0.5061,-0.3181 1.1278,-0.3181 0.4724,0 0.7808,0.15905 0.3085,0.15905 0.4916,0.38558 0.1832,0.22171 0.2844,0.4145 h 0.068 v -0.89166 h 1.2387 v 5.47528 q 0,0.68923 -0.3278,1.14229 -0.3277,0.45306 -0.9013,0.67477 -0.5687,0.22653 -1.2965,0.22653 z m 0.01,-3.20516 q 0.6072,0 0.935,-0.43378 0.3326,-0.4386 0.3326,-1.20976 0,-0.5109 -0.1446,-0.89166 -0.1446,-0.38077 -0.429,-0.59284 -0.2844,-0.21207 -0.694,-0.21207 -0.4242,0 -0.7086,0.22171 -0.2843,0.22171 -0.4289,0.60729 -0.1398,0.38077 -0.1398,0.86757 0,0.49161 0.1446,0.86274 0.1446,0.37112 0.429,0.57837 0.2891,0.20243 0.7037,0.20243 z m 8.0249,1.07482 h -1.8219 v -1.12783 h 1.7544 q 0.7471,0 1.2483,-0.26991 0.5061,-0.27473 0.7568,-0.82419 0.2554,-0.54945 0.2554,-1.37364 0,-0.82418 -0.2506,-1.36882 -0.2507,-0.54463 -0.7471,-0.81454 -0.4964,-0.27473 -1.229,-0.27473 h -1.8267 v -1.12783 h 1.9038 q 1.07,0 1.8363,0.42896 0.7712,0.42896 1.1857,1.23387 0.4145,0.8049 0.4145,1.92309 0,1.1182 -0.4145,1.92792 -0.4145,0.80491 -1.1953,1.23869 -0.776,0.42896 -1.8701,0.42896 z m -1.1375,-7.18149 v 7.18149 h -1.3013 v -7.18149 z m 5.4223,7.18149 v -5.38853 h 1.2676 v 5.38853 z m 0.6362,-6.14523 q -0.3036,0 -0.5205,-0.20244 -0.2169,-0.20243 -0.2169,-0.48679 0,-0.28919 0.2169,-0.49162 0.2169,-0.20243 0.5205,-0.20243 0.2988,0 0.5157,0.20243 0.2169,0.20243 0.2169,0.4868 0,0.28918 -0.2169,0.49161 -0.2169,0.20244 -0.5157,0.20244 z m 3.8992,8.27557 q -1.0266,0 -1.6146,-0.40004 -0.588,-0.39522 -0.7567,-0.95914 l 1.1374,-0.27954 q 0.077,0.15905 0.2266,0.31328 0.1494,0.15906 0.4,0.26027 0.2507,0.10604 0.6314,0.10604 0.5398,0 0.8917,-0.26509 0.3566,-0.26027 0.3566,-0.8531 v -1.01698 h -0.072 q -0.091,0.19279 -0.2795,0.40004 -0.188,0.20243 -0.4964,0.34703 -0.3037,0.13977 -0.7712,0.13977 -0.6169,0 -1.123,-0.29401 -0.5013,-0.294 -0.8001,-0.8772 -0.294,-0.58319 -0.294,-1.46039 0,-0.88685 0.294,-1.49896 0.2988,-0.61211 0.8049,-0.93022 0.5061,-0.3181 1.1278,-0.3181 0.4724,0 0.7808,0.15905 0.3085,0.15905 0.4917,0.38558 0.1831,0.22171 0.2843,0.4145 h 0.068 v -0.89166 h 1.2387 v 5.47528 q 0,0.68923 -0.3278,1.14229 -0.3277,0.45306 -0.9013,0.67477 -0.5687,0.22653 -1.2965,0.22653 z m 0.01,-3.20516 q 0.6072,0 0.935,-0.43378 0.3326,-0.4386 0.3326,-1.20976 0,-0.5109 -0.1446,-0.89166 -0.1446,-0.38077 -0.429,-0.59284 -0.2844,-0.21207 -0.694,-0.21207 -0.4242,0 -0.7086,0.22171 -0.2843,0.22171 -0.4289,0.60729 -0.1398,0.38077 -0.1398,0.86757 0,0.49161 0.1446,0.86274 0.1446,0.37112 0.429,0.57837 0.2892,0.20243 0.7037,0.20243 z m 3.4509,1.07482 v -5.38853 h 1.2676 v 5.38853 z m 0.6362,-6.14523 q -0.3036,0 -0.5205,-0.20244 -0.2169,-0.20243 -0.2169,-0.48679 0,-0.28919 0.2169,-0.49162 0.2169,-0.20243 0.5205,-0.20243 0.2989,0 0.5158,0.20243 0.2168,0.20243 0.2168,0.4868 0,0.28918 -0.2168,0.49161 -0.2169,0.20244 -0.5158,0.20244 z m 4.2511,0.7567 v 0.98324 h -3.0895 v -0.98324 z m -2.3328,-1.28206 h 1.2676 v 5.05114 q 0,0.3181 0.1398,0.47234 0.1398,0.14941 0.4434,0.14941 0.082,0 0.1832,-0.0145 0.1012,-0.0145 0.1831,-0.0337 l 0.2169,0.99288 q -0.2024,0.0627 -0.4097,0.0916 -0.2072,0.0337 -0.4145,0.0337 -0.7519,0 -1.1808,-0.39522 -0.429,-0.40004 -0.429,-1.08927 z m 4.5836,6.78144 q -0.5157,0 -0.9254,-0.18315 -0.4096,-0.18797 -0.6458,-0.54946 -0.2362,-0.36148 -0.2362,-0.89166 0,-0.45306 0.1687,-0.75188 0.1687,-0.29883 0.4579,-0.47716 0.294,-0.17833 0.6603,-0.26991 0.3663,-0.0964 0.7567,-0.13495 0.4772,-0.053 0.7712,-0.0916 0.294,-0.0386 0.4241,-0.12532 0.135,-0.0867 0.135,-0.2699 v -0.0241 q 0,-0.39041 -0.2314,-0.6073 -0.2313,-0.21689 -0.6748,-0.21689 -0.4675,0 -0.7422,0.20243 -0.2699,0.20244 -0.3663,0.47716 l -1.1809,-0.16869 q 0.1398,-0.49162 0.4627,-0.81936 0.323,-0.33257 0.7857,-0.49644 0.4675,-0.16869 1.0314,-0.16869 0.3856,0 0.7712,0.0916 0.3856,0.0868 0.7085,0.29883 0.3229,0.21207 0.5157,0.56873 0.1928,0.35667 0.1928,0.89166 v 3.60521 h -1.2194 v -0.74225 h -0.039 q -0.1156,0.22171 -0.3277,0.41932 -0.2073,0.19279 -0.5206,0.31329 -0.3084,0.12049 -0.7326,0.12049 z m 0.323,-0.93504 q 0.3855,0 0.6651,-0.14941 0.2795,-0.15423 0.4338,-0.40486 0.1542,-0.25545 0.1542,-0.55428 v -0.63139 q -0.063,0.0482 -0.2024,0.0916 -0.1398,0.0386 -0.3181,0.0723 -0.1784,0.0337 -0.3519,0.0578 -0.1687,0.0241 -0.294,0.0386 -0.2844,0.0386 -0.5109,0.13013 -0.2217,0.0868 -0.3518,0.24099 -0.1302,0.15424 -0.1302,0.40004 0,0.35185 0.2555,0.53018 0.2554,0.17833 0.6507,0.17833 z m 4.7234,-6.3573 v 7.18149 h -1.2677 v -7.18149 z m 3.0702,7.18149 v -7.18149 h 2.6942 q 0.829,0 1.3881,0.30847 0.5639,0.30846 0.8531,0.84828 0.2892,0.53982 0.2892,1.22423 0,0.68923 -0.294,1.22904 -0.2892,0.535 -0.8579,0.84347 -0.5688,0.30364 -1.3978,0.30364 h -1.7833 v -1.06999 h 1.605 q 0.4868,0 0.7953,-0.16387 0.3133,-0.1687 0.4579,-0.4627 0.1494,-0.29883 0.1494,-0.67959 0,-0.38559 -0.1494,-0.67477 -0.1446,-0.29401 -0.4579,-0.45306 -0.3085,-0.16388 -0.8001,-0.16388 h -1.1905 v 6.09222 z m 5.9283,0 v -5.38853 h 1.229 v 0.90612 h 0.058 q 0.1446,-0.47234 0.5061,-0.72297 0.3614,-0.25544 0.8241,-0.25544 0.1013,0 0.2314,0.01 0.135,0.01 0.2217,0.0241 v 1.16639 q -0.082,-0.0289 -0.2554,-0.0482 -0.1736,-0.0193 -0.3326,-0.0193 -0.3519,0 -0.6266,0.14941 -0.2747,0.14941 -0.4338,0.40968 -0.1542,0.26027 -0.1542,0.6073 v 3.16178 z m 5.6729,0.10603 q -0.7905,0 -1.3688,-0.34702 -0.5784,-0.34703 -0.8965,-0.9736 -0.3133,-0.62657 -0.3133,-1.45558 0,-0.83382 0.3133,-1.46039 0.3181,-0.63139 0.8965,-0.97842 0.5783,-0.34702 1.3688,-0.34702 0.7904,0 1.3688,0.34702 0.5784,0.34703 0.8965,0.97842 0.3181,0.62657 0.3181,1.46039 0,0.82901 -0.3181,1.45558 -0.3181,0.62657 -0.8965,0.9736 -0.5784,0.34702 -1.3688,0.34702 z m 0,-1.02179 q 0.4386,0 0.723,-0.23135 0.2843,-0.23617 0.4241,-0.63621 0.1446,-0.40005 0.1446,-0.88685 0,-0.49643 -0.1446,-0.89648 -0.1398,-0.40004 -0.4241,-0.63139 -0.2844,-0.23617 -0.723,-0.23617 -0.429,0 -0.7182,0.23617 -0.2891,0.23135 -0.4337,0.63139 -0.1398,0.40005 -0.1398,0.89648 0,0.4868 0.1398,0.88685 0.1446,0.40004 0.4337,0.63621 0.2892,0.23135 0.7182,0.23135 z m 5.268,1.01215 q -0.6314,0 -1.1374,-0.32292 -0.5013,-0.32775 -0.7905,-0.9495 -0.2892,-0.62175 -0.2892,-1.5086 0,-0.9013 0.294,-1.51823 0.2989,-0.61693 0.8001,-0.93504 0.5013,-0.3181 1.123,-0.3181 0.4772,0 0.7808,0.15905 0.3037,0.15905 0.482,0.38558 0.1832,0.22171 0.2796,0.4145 h 0.053 v -2.68462 h 1.2628 v 7.18149 h -1.2387 v -0.8531 h -0.077 q -0.1013,0.19761 -0.2844,0.41932 -0.1832,0.21689 -0.4868,0.37594 -0.3037,0.15423 -0.7712,0.15423 z m 0.3519,-1.04107 q 0.4048,0 0.6844,-0.21689 0.2843,-0.22171 0.4338,-0.61211 0.1494,-0.39523 0.1494,-0.91576 0,-0.52536 -0.1494,-0.91095 -0.1446,-0.3904 -0.429,-0.60247 -0.2795,-0.21207 -0.6892,-0.21207 -0.4194,0 -0.7037,0.22171 -0.2844,0.22171 -0.429,0.61211 -0.1398,0.39041 -0.1398,0.89167 0,0.50125 0.1446,0.89648 0.1446,0.39522 0.4242,0.62175 0.2843,0.22653 0.7037,0.22653 z m 6.8778,-1.3158 v -3.12805 h 1.2676 v 5.38853 h -1.229 v -0.95914 h -0.058 q -0.1831,0.45306 -0.5976,0.74225 -0.4145,0.28918 -1.0218,0.28436 -0.5302,0 -0.9351,-0.23135 -0.4,-0.23616 -0.6314,-0.68922 -0.2265,-0.45789 -0.2265,-1.10374 v -3.43169 h 1.2676 v 3.2389 q 0,0.50608 0.2796,0.80973 0.2843,0.30364 0.7422,0.29882 0.2796,0 0.5398,-0.13495 0.2651,-0.13496 0.4338,-0.40486 0.1687,-0.26991 0.1687,-0.67959 z m 4.5499,2.36651 q -0.8049,0 -1.3833,-0.35184 -0.5784,-0.35667 -0.8868,-0.98324 -0.3085,-0.62657 -0.3085,-1.44112 0,-0.82418 0.3133,-1.45075 0.3133,-0.62658 0.8917,-0.97842 0.5783,-0.35666 1.364,-0.35666 0.6603,0 1.1663,0.24099 0.5061,0.24098 0.8049,0.67959 0.3037,0.43378 0.3471,1.01697 h -1.2146 q -0.048,-0.26027 -0.188,-0.46752 -0.1398,-0.20725 -0.3663,-0.32774 -0.2217,-0.1205 -0.5302,-0.1205 -0.3904,0 -0.6844,0.21207 -0.2892,0.20725 -0.453,0.59766 -0.1639,0.3904 -0.1639,0.93504 0,0.54945 0.159,0.94949 0.1591,0.39523 0.4531,0.61212 0.294,0.21207 0.6892,0.21207 0.4194,0 0.7085,-0.24581 0.294,-0.24581 0.376,-0.67959 h 1.2146 q -0.043,0.57355 -0.3374,1.01215 -0.294,0.4386 -0.7953,0.68923 -0.5012,0.24581 -1.176,0.24581 z m 5.6777,-5.49456 v 0.98324 h -3.0895 v -0.98324 z m -2.3328,-1.28206 h 1.2676 v 5.05114 q 0,0.3181 0.1398,0.47234 0.1398,0.14941 0.4434,0.14941 0.082,0 0.1832,-0.0145 0.1012,-0.0145 0.1831,-0.0337 l 0.2169,0.99288 q -0.2024,0.0627 -0.4097,0.0916 -0.2072,0.0337 -0.4145,0.0337 -0.7519,0 -1.1808,-0.39522 -0.429,-0.40004 -0.429,-1.08927 z m 6.0922,6.67059 h -1.3929 l 2.5352,-7.18149 h 1.6002 l 2.5304,7.18149 h -1.3881 l -1.9183,-5.70663 h -0.058 z m 0.048,-2.81476 h 3.7836 v 1.04108 h -3.7836 z m 7.9093,4.9451 q -1.0266,0 -1.6146,-0.40004 -0.588,-0.39522 -0.7567,-0.95914 l 1.1374,-0.27954 q 0.077,0.15905 0.2266,0.31328 0.1494,0.15906 0.4,0.26027 0.2506,0.10604 0.6314,0.10604 0.5398,0 0.8917,-0.26509 0.3566,-0.26027 0.3566,-0.8531 v -1.01698 h -0.072 q -0.091,0.19279 -0.2795,0.40004 -0.188,0.20243 -0.4964,0.34703 -0.3037,0.13977 -0.7712,0.13977 -0.6169,0 -1.123,-0.29401 -0.5013,-0.294 -0.8001,-0.8772 -0.294,-0.58319 -0.294,-1.46039 0,-0.88685 0.294,-1.49896 0.2988,-0.61211 0.8049,-0.93022 0.5061,-0.3181 1.1278,-0.3181 0.4724,0 0.7808,0.15905 0.3085,0.15905 0.4917,0.38558 0.1831,0.22171 0.2843,0.4145 h 0.068 v -0.89166 h 1.2387 v 5.47528 q 0,0.68923 -0.3278,1.14229 -0.3277,0.45306 -0.9013,0.67477 -0.5687,0.22653 -1.2965,0.22653 z m 0.01,-3.20516 q 0.6072,0 0.935,-0.43378 0.3326,-0.4386 0.3326,-1.20976 0,-0.5109 -0.1446,-0.89166 -0.1446,-0.38077 -0.429,-0.59284 -0.2844,-0.21207 -0.694,-0.21207 -0.4242,0 -0.7086,0.22171 -0.2843,0.22171 -0.4289,0.60729 -0.1398,0.38077 -0.1398,0.86757 0,0.49161 0.1446,0.86274 0.1446,0.37112 0.429,0.57837 0.2892,0.20243 0.7037,0.20243 z m 5.8367,1.18085 q -0.8097,0 -1.3977,-0.33738 -0.588,-0.34221 -0.9061,-0.96396 -0.3133,-0.62175 -0.3133,-1.46522 0,-0.83382 0.3133,-1.46039 0.3132,-0.6314 0.882,-0.98324 0.5687,-0.35184 1.3399,-0.35184 0.4964,0 0.9398,0.15905 0.4483,0.15905 0.7905,0.49162 0.347,0.33256 0.5446,0.84828 0.1976,0.5109 0.1976,1.21941 v 0.39522 h -4.4149 v -0.8531 h 3.7835 l -0.5928,0.25063 q 0,-0.45788 -0.1398,-0.79527 -0.1397,-0.3422 -0.4145,-0.535 -0.2747,-0.19279 -0.6844,-0.19279 -0.4097,0 -0.6988,0.19279 -0.2892,0.1928 -0.4386,0.52054 -0.1495,0.32293 -0.1495,0.72297 v 0.59283 q 0,0.49162 0.1687,0.84347 0.1735,0.34702 0.482,0.53017 0.3133,0.18316 0.7278,0.18316 0.2699,0 0.4916,-0.0771 0.2265,-0.0771 0.3856,-0.23135 0.1639,-0.15905 0.2506,-0.3904 l 1.1857,0.13977 q -0.1157,0.46752 -0.429,0.81936 -0.3084,0.34703 -0.7952,0.53982 -0.482,0.18797 -1.1086,0.18797 z m 4.3427,-3.25817 v 3.15214 h -1.2677 v -5.38853 h 1.2436 v 0.92058 h 0.063 q 0.1832,-0.45306 0.5736,-0.71815 0.3952,-0.2699 1.0025,-0.2699 0.5591,0 0.9736,0.23617 0.4145,0.23617 0.641,0.69405 0.2314,0.45306 0.2314,1.09891 v 3.42687 h -1.2676 v -3.22926 q 0,-0.53982 -0.2796,-0.84346 -0.2795,-0.30847 -0.7712,-0.30847 -0.3325,0 -0.5928,0.14459 -0.2554,0.1446 -0.4049,0.41932 -0.1445,0.26991 -0.1445,0.66514 z m 6.7428,3.25817 q -0.8049,0 -1.3832,-0.35184 -0.5784,-0.35667 -0.8869,-0.98324 -0.3084,-0.62657 -0.3084,-1.44112 0,-0.82418 0.3132,-1.45075 0.3133,-0.62658 0.8917,-0.97842 0.5784,-0.35666 1.364,-0.35666 0.6603,0 1.1664,0.24099 0.5061,0.24098 0.8049,0.67959 0.3036,0.43378 0.347,1.01697 h -1.2146 q -0.048,-0.26027 -0.1879,-0.46752 -0.1398,-0.20725 -0.3663,-0.32774 -0.2218,-0.1205 -0.5302,-0.1205 -0.3904,0 -0.6844,0.21207 -0.2892,0.20725 -0.4531,0.59766 -0.1639,0.3904 -0.1639,0.93504 0,0.54945 0.1591,0.94949 0.159,0.39523 0.453,0.61212 0.2941,0.21207 0.6893,0.21207 0.4193,0 0.7085,-0.24581 0.294,-0.24581 0.3759,-0.67959 h 1.2146 q -0.043,0.57355 -0.3374,1.01215 -0.294,0.4386 -0.7952,0.68923 -0.5013,0.24581 -1.1761,0.24581 z m 3.6004,1.90864 q -0.2602,0.005 -0.482,-0.0386 -0.2169,-0.0386 -0.3518,-0.0916 l 0.2988,-0.98806 0.063,0.0193 q 0.3856,0.10121 0.6555,0.0145 0.2747,-0.0868 0.4386,-0.52536 l 0.106,-0.28919 -1.9472,-5.5042 h 1.3447 l 1.2387,4.07273 h 0.058 l 1.2435,-4.07273 h 1.3543 l -2.1592,6.0392 q -0.1495,0.42896 -0.3953,0.73261 -0.2458,0.30846 -0.6073,0.46752 -0.3614,0.16387 -0.8579,0.16387 z"
         id="text201"
         style="font-weight:600;font-size:9.87093px;font-family:'Inter Tight';-inkscape-font-specification:'Inter Tight Semi-Bold';letter-spacing:0px;fill:#a3a3a3;stroke-width:0.246774"
         aria-label="Malang Digital Product Agency" /></g></g></svg>
